<?xml version="1.0" encoding="UTF-8" standalone="no"?>
<!-- Generator: Gravit.io -->
<svg xmlns="http://www.w3.org/2000/svg" xmlns:xlink="http://www.w3.org/1999/xlink" style="isolation:isolate" viewBox="0 0 288 216" width="288pt" height="216pt"><defs><clipPath id="_clipPath_lbaVNgS6SqZxmuPdCnao7c4DJ5PSDtFg"><rect width="288" height="216"/></clipPath></defs><g clip-path="url(#_clipPath_lbaVNgS6SqZxmuPdCnao7c4DJ5PSDtFg)"><path d=" M 60.2 92.9 C 60.2 92.8 60.2 92.7 60.2 92.6 C 60.3 92.6 60.4 92.7 60.4 92.9 C 60.4 92.9 60.3 92.9 60.2 92.9 Z " fill="rgb(131,131,131)"/><g><g><g><linearGradient id="_lgradient_0" x1="0.0003714285714284671" y1="0.5015658482142855" x2="0.999527380952381" y2="0.5015658482142855" gradientTransform="matrix(84,0,0,89.6,92.35,63.1)" gradientUnits="userSpaceOnUse"><stop offset="0%" stop-opacity="1" style="stop-color:rgb(67,203,255)"/><stop offset="99.26%" stop-opacity="1" style="stop-color:rgb(119,8,204)"/></linearGradient><path d=" M 176.35 117.6 C 156.85 115.4 139.15 121.9 122.95 134.9 C 117.35 139.4 112.85 144.9 108.65 150.7 C 108.15 151.4 107.65 152 107.15 152.7 L 92.35 152.7 C 105.05 125.4 127.65 111.7 156.05 105 C 152.35 98.8 148.75 92.9 144.95 86.5 C 142.85 90.5 141.05 94.2 139.15 97.9 C 132.15 100.2 125.85 103.7 119.15 107.1 C 127.55 92.5 135.85 78 144.35 63.1 C 153.45 78.6 162.35 93.8 171.35 109.2 L 176.35 117.6 Z " fill="url(#_lgradient_0)"/></g><g><linearGradient id="_lgradient_1" x1="0.0004965986394562805" y1="0.5010077386070506" x2="1.0008027210884363" y2="0.5010077386070506" gradientTransform="matrix(29.4,0,0,29.075,166.25,123.725)" gradientUnits="userSpaceOnUse"><stop offset="0%" stop-opacity="1" style="stop-color:rgb(67,203,255)"/><stop offset="99.26%" stop-opacity="1" style="stop-color:rgb(119,8,204)"/></linearGradient><path d=" M 195.65 152.8 C 191.35 152.8 187.45 152.8 183.45 152.8 C 177.85 143.5 172.15 134.1 166.25 124.4 C 170.35 123.8 174.15 123.6 178.15 123.8 C 183.85 133.3 189.65 142.9 195.65 152.8 Z " fill="url(#_lgradient_1)"/></g><g><linearGradient id="_lgradient_2" x1="-0.0025196850393705006" y1="0.4995836575875483" x2="0.9991023622047237" y2="0.4995836575875483" gradientTransform="matrix(25.4,0,0,25.7,142.95,127.1)" gradientUnits="userSpaceOnUse"><stop offset="0%" stop-opacity="1" style="stop-color:rgb(67,203,255)"/><stop offset="99.26%" stop-opacity="1" style="stop-color:rgb(119,8,204)"/></linearGradient><path d=" M 168.35 152.8 C 164.15 152.8 160.25 152.8 156.15 152.8 C 151.85 145.7 147.45 138.4 142.95 131 C 146.05 129.2 149.35 128.2 152.85 127.1 C 157.95 135.6 163.05 144 168.35 152.8 Z " fill="url(#_lgradient_2)"/></g><g><linearGradient id="_lgradient_3" x1="0.002502857142857806" y1="0.4967417218543053" x2="1.0022971428571434" y2="0.4967417218543053" gradientTransform="matrix(17.5,0,0,15.1,123.25,137.8)" gradientUnits="userSpaceOnUse"><stop offset="0%" stop-opacity="1" style="stop-color:rgb(67,203,255)"/><stop offset="99.26%" stop-opacity="1" style="stop-color:rgb(119,8,204)"/></linearGradient><path d=" M 140.75 152.9 C 136.45 152.9 132.55 152.9 128.45 152.9 C 126.85 150.3 125.05 147.6 123.25 144.7 C 125.55 142.1 128.35 140 131.25 137.8 C 134.45 142.7 137.45 147.6 140.75 152.9 Z " fill="url(#_lgradient_3)"/></g></g></g></g></svg>