<svg width="24" height="24" xmlns="http://www.w3.org/2000/svg">

 <g>
  <title>background</title>
  <rect fill="none" id="canvas_background" height="602" width="802" y="-1" x="-1"/>
 </g>
 <g>
  <title>Layer 1</title>
  <path fill="#7510f7" id="svg_1" d="m13.663,24l-3.326,0c-0.812,0 -1.503,-0.555 -1.681,-1.349l-0.422,-1.873c-0.687,-0.291 -1.341,-0.671 -1.954,-1.134l-1.822,0.575c-0.782,0.241 -1.632,-0.09 -2.024,-0.788l-1.658,-2.868c-0.397,-0.71 -0.263,-1.585 0.322,-2.135l1.412,-1.298c-0.043,-0.38 -0.065,-0.759 -0.065,-1.13s0.021,-0.75 0.064,-1.13l-1.405,-1.292c-0.591,-0.556 -0.726,-1.43 -0.333,-2.131l1.668,-2.885c0.388,-0.69 1.237,-1.024 2.017,-0.781c0.608,0.19167 1.216,0.38333 1.824,0.575c0.613,-0.463 1.268,-0.843 1.954,-1.134l0.422,-1.874c0.178,-0.793 0.869,-1.348 1.681,-1.348l3.326,0c0.812,0 1.503,0.555 1.681,1.349l0.422,1.873c0.687,0.291 1.341,0.671 1.954,1.134l1.822,-0.575c0.78,-0.244 1.631,0.09 2.024,0.788l1.658,2.868c0.397,0.71 0.263,1.585 -0.322,2.135l-1.412,1.298c0.043,0.38 0.064,0.759 0.064,1.13s-0.021,0.75 -0.064,1.13l1.406,1.292c0.002,0.002 0.004,0.004 0.006,0.006c0.585,0.55 0.72,1.424 0.327,2.125l-1.668,2.885c-0.389,0.69 -1.238,1.024 -2.017,0.781l-1.825,-0.576c-0.613,0.463 -1.268,0.843 -1.954,1.134l-0.422,1.874c-0.177,0.794 -0.868,1.349 -1.68,1.349zm-7.229,-5.941c0.172,0 0.341,0.059 0.478,0.171c0.685,0.565 1.435,1 2.228,1.293c0.238,0.088 0.416,0.291 0.472,0.539l0.509,2.26c0.023,0.103 0.115,0.178 0.218,0.178l3.326,0c0.103,0 0.194,-0.075 0.218,-0.177l0.509,-2.26c0.056,-0.248 0.233,-0.451 0.472,-0.539c0.793,-0.293 1.543,-0.729 2.228,-1.293c0.196,-0.162 0.459,-0.214 0.703,-0.137l2.201,0.695c0.104,0.032 0.216,-0.004 0.265,-0.093l1.668,-2.884c0.05,-0.089 0.032,-0.211 -0.049,-0.289l-1.688,-1.552c-0.184,-0.169 -0.271,-0.417 -0.233,-0.664c0.066,-0.44 0.1,-0.88 0.1,-1.307s-0.033,-0.866 -0.1,-1.307c-0.037,-0.247 0.05,-0.495 0.233,-0.664l1.692,-1.556c0.076,-0.072 0.096,-0.195 0.04,-0.294l-1.658,-2.867c-0.054,-0.095 -0.162,-0.132 -0.272,-0.1l-2.198,0.694c-0.244,0.077 -0.507,0.025 -0.703,-0.137c-0.685,-0.565 -1.435,-1 -2.228,-1.293c-0.238,-0.088 -0.416,-0.291 -0.472,-0.539l-0.509,-2.26c-0.027,-0.102 -0.118,-0.177 -0.221,-0.177l-3.326,0c-0.103,0 -0.194,0.075 -0.218,0.177l-0.509,2.261c-0.055,0.248 -0.233,0.45 -0.471,0.539c-0.793,0.293 -1.543,0.728 -2.228,1.293c-0.196,0.162 -0.459,0.213 -0.703,0.137l-2.201,-0.695c-0.104,-0.032 -0.216,0.005 -0.265,0.093l-1.668,2.883c-0.051,0.09 -0.031,0.213 0.051,0.291l1.687,1.55c0.184,0.169 0.271,0.417 0.233,0.664c-0.066,0.44 -0.1,0.88 -0.1,1.307s0.033,0.866 0.1,1.307c0.037,0.247 -0.05,0.495 -0.233,0.664l-1.692,1.556c-0.076,0.072 -0.096,0.195 -0.04,0.294l1.658,2.867c0.055,0.096 0.164,0.135 0.272,0.1l2.198,-0.694c0.074,-0.024 0.15,-0.035 0.226,-0.035z"/>
  <path fill="#7510f7" id="svg_2" d="m11.251,16c-0.057,0 -0.113,-0.006 -0.17,-0.019c-0.403,-0.093 -0.655,-0.496 -0.562,-0.899l1.5,-6.5c0.093,-0.405 0.501,-0.654 0.899,-0.563c0.403,0.093 0.655,0.496 0.562,0.899l-1.5,6.5c-0.08,0.348 -0.388,0.582 -0.729,0.582z"/>
  <path fill="#7510f7" stroke-width="0" id="svg_3" d="m15.25,15c-0.205,0 -0.409,-0.083 -0.558,-0.248c-0.277,-0.308 -0.252,-0.782 0.056,-1.06l1.881,-1.692l-1.881,-1.692c-0.308,-0.277 -0.333,-0.751 -0.056,-1.06c0.278,-0.307 0.752,-0.332 1.06,-0.056l2.5,2.25c0.158,0.143 0.248,0.346 0.248,0.558s-0.09,0.415 -0.248,0.558l-2.5,2.25c-0.144,0.129 -0.323,0.192 -0.502,0.192z"/>
  <path fill="#7510f7" id="svg_4" d="m8.75,15c-0.179,0 -0.358,-0.063 -0.502,-0.192l-2.5,-2.25c-0.158,-0.143 -0.248,-0.346 -0.248,-0.558s0.09,-0.415 0.248,-0.558l2.5,-2.25c0.308,-0.277 0.781,-0.252 1.06,0.056c0.277,0.308 0.252,0.782 -0.056,1.06l-1.881,1.692l1.881,1.692c0.308,0.277 0.333,0.751 0.056,1.06c-0.149,0.165 -0.353,0.248 -0.558,0.248z"/>
 </g>
</svg>